HIERARCHY
ROOT joint_Root
{
	OFFSET 0.0 0.0 0.0
	CHANNELS 6 Xposition Yposition Zposition Zrotation Xrotation Yrotation 
	JOINT Hips
	{
		OFFSET -17.1583 93.1646 452.98
		CHANNELS 6 Xposition Yposition Zposition Zrotation Xrotation Yrotation 
		JOINT Spine
		{
			OFFSET 15.7357 0.0 0.0
			CHANNELS 6 Xposition Yposition Zposition Zrotation Xrotation Yrotation 
			JOINT Chest
			{
				OFFSET 8.98455 -0.406207 0.0
				CHANNELS 6 Xposition Yposition Zposition Zrotation Xrotation Yrotation 
				JOINT Neck
				{
					OFFSET 16.3773 0.0 0.0
					CHANNELS 6 Xposition Yposition Zposition Zrotation Xrotation Yrotation 
					JOINT Head
					{
						OFFSET 6.45672 0.0 0.0
						CHANNELS 6 Xposition Yposition Zposition Zrotation Xrotation Yrotation 
						End Site
						{
							OFFSET 0.0 0.0 0.0
						}
					}
				}
				JOINT Shoulder_L
				{
					OFFSET 12.9942 -0.242716 4.98039
					CHANNELS 6 Xposition Yposition Zposition Zrotation Xrotation Yrotation 
					JOINT UpperArm_L
					{
						OFFSET 5.34809 0.0 0.0
						CHANNELS 6 Xposition Yposition Zposition Zrotation Xrotation Yrotation 
						JOINT LowerArm_L
						{
							OFFSET 24.3286 1.87007e-05 0.0
							CHANNELS 6 Xposition Yposition Zposition Zrotation Xrotation Yrotation 
							JOINT Hand_L
							{
								OFFSET 22.2916 0.0 0.0
								CHANNELS 6 Xposition Yposition Zposition Zrotation Xrotation Yrotation 
								End Site
								{
									OFFSET 0.0 0.0 0.0
								}
							}
						}
					}
				}
				JOINT Shoulder_R
				{
					OFFSET 12.9945 -0.242716 -4.98039
					CHANNELS 6 Xposition Yposition Zposition Zrotation Xrotation Yrotation 
					JOINT UpperArm_R
					{
						OFFSET -5.34813 0.0 0.0
						CHANNELS 6 Xposition Yposition Zposition Zrotation Xrotation Yrotation 
						JOINT LowerArm_R
						{
							OFFSET -24.3289 0.000322201 0.0
							CHANNELS 6 Xposition Yposition Zposition Zrotation Xrotation Yrotation 
							JOINT Hand_R
							{
								OFFSET -22.2915 -0.000108084 0.0
								CHANNELS 6 Xposition Yposition Zposition Zrotation Xrotation Yrotation 
								End Site
								{
									OFFSET 0.0 0.0 0.0
								}
							}
						}
					}
				}
			}
		}
		JOINT UpperLeg_L
		{
			OFFSET -2.19248 -6.46944 0.0
			CHANNELS 6 Xposition Yposition Zposition Zrotation Xrotation Yrotation 
			JOINT LowerLeg_L
			{
				OFFSET 39.0811 0.0 -1.23785e-05
				CHANNELS 6 Xposition Yposition Zposition Zrotation Xrotation Yrotation 
				JOINT Foot_L
				{
					OFFSET 40.9854 0.0 -1.26872e-05
					CHANNELS 6 Xposition Yposition Zposition Zrotation Xrotation Yrotation 
					JOINT Toes_L
					{
						OFFSET 11.7543 0.0 0.0
						CHANNELS 6 Xposition Yposition Zposition Zrotation Xrotation Yrotation 
						End Site
						{
							OFFSET 0.0 0.0 0.0
						}
					}
				}
			}
		}
		JOINT UpperLeg_R
		{
			OFFSET -2.19251 6.46944 0.0
			CHANNELS 6 Xposition Yposition Zposition Zrotation Xrotation Yrotation 
			JOINT LowerLeg_R
			{
				OFFSET -39.0811 -0.00228153 -0.0401928
				CHANNELS 6 Xposition Yposition Zposition Zrotation Xrotation Yrotation 
				JOINT Foot_R
				{
					OFFSET -40.9854 0.0 0.0
					CHANNELS 6 Xposition Yposition Zposition Zrotation Xrotation Yrotation 
					JOINT Toes_R
					{
						OFFSET -11.7543 0.0 0.0
						CHANNELS 6 Xposition Yposition Zposition Zrotation Xrotation Yrotation 
						End Site
						{
							OFFSET 0.0 0.0 0.0
						}
					}
				}
			}
		}
	}
}
MOTION
Frames:	6
Frame Time:	0.0333333
0.000000 0.000000 0.000000 0.000000 0.000000 -0.000000 -2.526310 92.999400 0.172035 86.907800 1.038180 2.906000 15.735700 0.000005 -0.000001 76.664500 86.123400 -74.672400 8.984550 -0.406207 -0.000000 -0.185023 -1.926030 3.979040 16.377300 -0.000001 -0.000001 3.140440 0.845395 0.169745 6.456720 -0.000001 -0.000000 -11.646200 0.738848 0.794896 12.994200 -0.242716 4.980390 -93.390800 10.190200 -71.484500 5.348090 -0.000007 -0.000001 -72.188000 27.410100 -1.348880 24.328600 0.000019 0.000005 12.052200 27.781000 -24.611500 22.291600 -0.000001 0.000005 -2.515020 5.079150 5.587540 12.994500 -0.242716 -4.980390 87.303200 7.657440 -70.531900 -5.348130 -0.000001 -0.000004 -65.832700 33.968000 -7.271120 -24.328900 0.000322 -0.000009 0.875390 2.552540 -18.957900 -22.291500 -0.000108 -0.000004 -5.522490 5.275990 0.735747 -2.192480 -6.469440 -0.000000 -170.244000 -7.963320 0.751982 39.081100 -0.000007 -0.000012 0.007193 -0.024717 16.226200 40.985400 -0.000006 -0.000013 -1.378770 17.602600 -69.242600 11.754300 -0.000000 0.000003 -0.001558 0.190672 -8.841570 -2.192510 6.469440 -0.000001 178.705000 5.207730 -177.014000 -39.081100 -0.002282 -0.040193 0.004717 -0.006488 12.022600 -40.985400 0.000008 0.000006 -5.497920 9.705450 -67.012600 -11.754300 -0.000006 -0.000006 -0.008461 0.259425 -6.036600
0.000000 0.000000 0.000000 0.000000 0.000000 -0.000000 -2.487390 92.992800 0.211616 86.861000 1.133620 2.887990 15.735700 0.000005 -0.000001 77.151500 86.158800 -75.266800 8.984550 -0.406207 -0.000000 -0.242709 -1.839630 3.763690 16.377300 -0.000001 -0.000001 3.114880 0.852323 0.030694 6.456720 -0.000001 -0.000000 -11.705500 0.672264 0.560222 12.994200 -0.242716 4.980390 -93.353800 10.084300 -71.495400 5.348090 -0.000007 -0.000001 -72.153800 27.085900 -1.382650 24.328600 0.000019 0.000005 12.030800 27.614700 -24.691800 22.291600 -0.000001 0.000005 -2.336350 5.077080 5.634210 12.994500 -0.242716 -4.980390 87.211000 7.902060 -70.488600 -5.348130 -0.000001 -0.000004 -65.524000 32.689600 -7.794650 -24.328900 0.000322 -0.000009 0.996353 2.972070 -18.561200 -22.291500 -0.000108 -0.000004 -5.461000 5.275100 0.759968 -2.192480 -6.469440 -0.000000 -170.238000 -7.787030 0.689498 39.081100 -0.000007 -0.000012 0.007518 -0.025674 16.323200 40.985400 -0.000006 -0.000013 -1.345550 17.529300 -69.290600 11.754300 -0.000000 0.000003 -0.001594 0.191141 -8.822510 -2.192510 6.469440 -0.000001 178.685000 5.481600 -176.955000 -39.081100 -0.002282 -0.040193 0.004147 -0.003837 11.934600 -40.985400 0.000008 0.000006 -5.464170 9.879670 -67.006000 -11.754300 -0.000006 -0.000006 -0.008853 0.262521 -5.910110
0.000000 0.000000 0.000000 0.000000 0.000000 -0.000000 -2.437140 92.998000 0.257751 86.853900 1.178960 2.854280 15.735700 0.000005 -0.000001 77.718800 86.191000 -75.943700 8.984550 -0.406207 -0.000000 -0.292602 -1.744840 3.543880 16.377300 -0.000001 -0.000001 2.961920 0.873183 -0.147721 6.456720 -0.000001 -0.000000 -11.771900 0.696374 0.187046 12.994200 -0.242716 4.980390 -93.351700 10.046300 -71.441900 5.348090 -0.000007 -0.000001 -71.989100 26.753200 -1.411880 24.328600 0.000019 0.000005 12.089700 27.511100 -24.877200 22.291600 -0.000001 0.000005 -2.240940 5.080080 5.566550 12.994500 -0.242716 -4.980390 87.157800 8.003970 -70.376600 -5.348130 -0.000001 -0.000004 -64.938600 31.480100 -8.349810 -24.328900 0.000322 -0.000009 1.179730 3.433420 -18.991400 -22.291500 -0.000108 -0.000004 -5.727480 5.264250 1.053440 -2.192480 -6.469440 -0.000000 -170.302000 -7.583510 0.681418 39.081100 -0.000007 -0.000012 0.008946 -0.030582 16.305900 40.985400 -0.000006 -0.000013 -1.332250 17.335000 -69.352100 11.754300 -0.000000 0.000003 -0.001693 0.192432 -8.770020 -2.192510 6.469440 -0.000001 178.576000 5.847490 -176.866000 -39.081100 -0.002282 -0.040193 0.001704 0.007835 11.768000 -40.985400 0.000008 0.000006 -5.748200 10.245100 -66.803900 -11.754300 -0.000006 -0.000006 -0.008534 0.260008 -6.012800
0.000000 0.000000 0.000000 0.000000 0.000000 -0.000000 -2.381970 93.003600 0.267067 86.796700 1.223440 2.746230 15.735700 0.000005 -0.000001 78.386900 86.242700 -76.708900 8.984550 -0.406207 -0.000000 -0.378990 -1.631580 3.348950 16.377300 -0.000001 -0.000001 2.769650 0.943130 -0.438637 6.456720 -0.000001 -0.000000 -11.930500 0.676164 -0.211721 12.994200 -0.242716 4.980390 -93.322900 9.960440 -71.444600 5.348090 -0.000007 -0.000001 -71.903600 25.816200 -1.319010 24.328600 0.000019 0.000005 12.302400 27.521700 -25.264700 22.291600 -0.000001 0.000005 -2.155990 5.081370 5.537470 12.994500 -0.242716 -4.980390 87.077400 8.120560 -70.129000 -5.348130 -0.000001 -0.000004 -63.832400 29.875200 -8.496550 -24.328900 0.000322 -0.000009 1.432990 3.624370 -21.604000 -22.291500 -0.000108 -0.000004 -7.471950 5.217230 2.286850 -2.192480 -6.469440 -0.000000 -170.319000 -7.427920 0.536642 39.081100 -0.000007 -0.000012 0.010390 -0.035392 16.361300 40.985400 -0.000006 -0.000013 -1.303390 17.210500 -69.399300 11.754300 -0.000000 0.000003 -0.001651 0.191884 -8.792310 -2.192510 6.469440 -0.000001 178.547000 6.115260 -176.862000 -39.081100 -0.002282 -0.040193 0.000000 0.016309 11.560100 -40.985400 0.000008 0.000006 -5.944870 10.488300 -66.622600 -11.754300 -0.000006 -0.000006 -0.008596 0.260496 -5.992870
0.000000 0.000000 0.000000 0.000000 0.000000 -0.000000 -2.319610 93.019400 0.285226 86.753900 1.484100 2.566920 15.735700 0.000005 -0.000001 77.286300 86.286200 -75.695200 8.984550 -0.406207 -0.000000 -0.494157 -1.748950 3.173260 16.377300 -0.000001 -0.000001 2.385270 1.070670 -0.896097 6.456720 -0.000001 -0.000000 -12.023100 0.853058 -0.709159 12.994200 -0.242716 4.980390 -93.299100 9.882170 -71.434200 5.348090 -0.000007 -0.000001 -71.859300 24.198000 -0.993080 24.328600 0.000019 0.000005 12.625500 27.439800 -25.923300 22.291600 -0.000001 0.000005 -2.122950 5.079840 5.571840 12.994500 -0.242716 -4.980390 87.004500 8.176570 -69.799600 -5.348130 -0.000001 -0.000004 -62.023800 27.568500 -7.995200 -24.328900 0.000322 -0.000009 1.627500 3.115480 -27.619000 -22.291500 -0.000108 -0.000004 -11.279700 5.122880 4.592360 -2.192480 -6.469440 -0.000000 -170.368000 -7.205020 0.301158 39.081100 -0.000007 -0.000012 0.011479 -0.039118 16.354100 40.985400 -0.000006 -0.000013 -1.263270 17.185700 -69.415100 11.754300 -0.000000 0.000003 -0.001553 0.190598 -8.844590 -2.192510 6.469440 -0.000001 178.470000 6.595260 -176.834000 -39.081100 -0.002282 -0.040193 -0.002540 0.029691 11.195500 -40.985400 0.000008 0.000006 -6.336440 10.776200 -66.290300 -11.754300 -0.000006 -0.000006 -0.008808 0.262168 -5.924520
0.000000 0.000000 0.000000 0.000000 0.000000 -0.000000 -2.232390 93.039800 0.295787 86.766400 1.859810 2.297230 15.735700 0.000005 -0.000001 75.106400 86.365800 -73.652700 8.984550 -0.406207 -0.000000 -0.715031 -1.975310 2.893890 16.377300 -0.000001 -0.000001 1.985730 1.181800 -1.455950 6.456720 -0.000001 -0.000000 -12.126000 1.074490 -1.331750 12.994200 -0.242716 4.980390 -93.284000 9.828440 -71.420500 5.348090 -0.000007 -0.000001 -71.673800 21.370900 -0.442148 24.328600 0.000019 0.000005 13.209100 27.557300 -26.900600 22.291600 -0.000001 0.000005 -2.596070 5.091920 5.298190 12.994500 -0.242716 -4.980390 86.974700 8.074510 -69.380400 -5.348130 -0.000001 -0.000004 -59.478200 24.673200 -6.752340 -24.328900 0.000322 -0.000009 1.684560 2.202010 -37.451600 -22.291500 -0.000108 -0.000004 -15.777900 5.020990 6.875560 -2.192480 -6.469440 -0.000000 -170.489000 -7.037890 -0.010136 39.081100 -0.000007 -0.000012 0.012761 -0.043685 16.284500 40.985400 -0.000006 -0.000013 -1.192520 17.304900 -69.423300 11.754300 -0.000000 0.000003 -0.001728 0.192893 -8.751270 -2.192510 6.469440 -0.000001 178.334000 7.120560 -176.868000 -39.081100 -0.002282 -0.040193 -0.004455 0.040774 10.819300 -40.985400 0.000008 0.000006 -6.855150 10.990200 -65.982600 -11.754300 -0.000006 -0.000006 -0.009070 0.264221 -5.840630
